<?xml version="1.0" encoding="utf-8"?>
<!-- Generator: Adobe Illustrator 20.0.0, SVG Export Plug-In . SVG Version: 6.00 Build 0)  -->
<svg version="1.1" id="Arrow_1_" xmlns="http://www.w3.org/2000/svg" xmlns:xlink="http://www.w3.org/1999/xlink" x="0px" y="0px"
	 viewBox="0 0 500 500" style="enable-background:new 0 0 500 500;" xml:space="preserve">
<style type="text/css">
	.st0{fill:#0071AA;}
</style>
<g>
	<path class="st0" d="M453.1,0H109.4C83.5,0,62.5,21,62.5,46.9v31.2H46.9C21,78.1,0,99.1,0,125v312.5C0,472,28,500,62.5,500h375
		c34.5,0,62.5-28,62.5-62.5V46.9C500,21,479,0,453.1,0z M468.8,437.5c0,17.2-14,31.2-31.2,31.2h-375c-17.2,0-31.2-14-31.2-31.2V125
		c0-8.6,7-15.6,15.6-15.6h15.6v312.5c0,8.6,7,15.6,15.6,15.6s15.6-7,15.6-15.6v-375c0-8.6,7-15.6,15.6-15.6h343.8
		c8.6,0,15.6,7,15.6,15.6L468.8,437.5L468.8,437.5z"/>
	<path class="st0" d="M304.7,203.2h125c4.3,0,7.8-3.5,7.8-7.8s-3.5-7.8-7.8-7.8h-125c-4.3,0-7.8,3.5-7.8,7.8
		S300.4,203.2,304.7,203.2z"/>
	<path class="st0" d="M304.7,156.3h125c4.3,0,7.8-3.5,7.8-7.8s-3.5-7.8-7.8-7.8h-125c-4.3,0-7.8,3.5-7.8,7.8
		S300.4,156.3,304.7,156.3z"/>
	<path class="st0" d="M304.7,109.5h125c4.3,0,7.8-3.5,7.8-7.8s-3.5-7.8-7.8-7.8h-125c-4.3,0-7.8,3.5-7.8,7.8
		S300.4,109.5,304.7,109.5z"/>
	<path class="st0" d="M257.8,421.9h-125c-4.3,0-7.8,3.5-7.8,7.8s3.5,7.8,7.8,7.8h125c4.3,0,7.8-3.5,7.8-7.8
		C265.6,425.5,262.1,421.9,257.8,421.9z"/>
	<path class="st0" d="M257.8,375.1h-125c-4.3,0-7.8,3.5-7.8,7.8s3.5,7.8,7.8,7.8h125c4.3,0,7.8-3.5,7.8-7.8
		C265.6,378.6,262.1,375.1,257.8,375.1z"/>
	<path class="st0" d="M257.8,328.2h-125c-4.3,0-7.8,3.5-7.8,7.8s3.5,7.8,7.8,7.8h125c4.3,0,7.8-3.5,7.8-7.8
		C265.6,331.7,262.1,328.2,257.8,328.2z"/>
	<path class="st0" d="M429.7,421.9h-125c-4.3,0-7.8,3.5-7.8,7.8s3.5,7.8,7.8,7.8h125c4.3,0,7.8-3.5,7.8-7.8
		C437.5,425.5,434,421.9,429.7,421.9z"/>
	<path class="st0" d="M429.7,375.1h-125c-4.3,0-7.8,3.5-7.8,7.8s3.5,7.8,7.8,7.8h125c4.3,0,7.8-3.5,7.8-7.8S434,375.1,429.7,375.1z"
		/>
	<path class="st0" d="M429.7,328.2h-125c-4.3,0-7.8,3.5-7.8,7.8s3.5,7.8,7.8,7.8h125c4.3,0,7.8-3.5,7.8-7.8S434,328.2,429.7,328.2z"
		/>
	<path class="st0" d="M429.7,234.4H132.8c-4.3,0-7.8,3.5-7.8,7.8s3.5,7.8,7.8,7.8h296.9c4.3,0,7.8-3.5,7.8-7.8
		S434,234.4,429.7,234.4z"/>
	<path class="st0" d="M429.7,281.3H132.8c-4.3,0-7.8,3.5-7.8,7.8s3.5,7.8,7.8,7.8h296.9c4.3,0,7.8-3.5,7.8-7.8
		S434,281.3,429.7,281.3z"/>
	<path class="st0" d="M140.6,203.1H250c8.6,0,15.6-7,15.6-15.6V78.2c0-8.6-7-15.6-15.6-15.6H140.6c-8.6,0-15.6,7-15.6,15.6v109.3
		C125,196.1,132,203.1,140.6,203.1z M156.2,93.8h78.1v78.1h-78.1L156.2,93.8L156.2,93.8z"/>
</g>
</svg>
